<?xml version="1.0" encoding="UTF-8"?><svg id="Layer_1" xmlns="http://www.w3.org/2000/svg" viewBox="0 0 488.12 80.71"><defs><style>.cls-1{fill:#ced4d6;}.cls-1,.cls-2,.cls-3{stroke-width:0px;}.cls-2{fill:#fff;}.cls-3{fill:#ed2a74;}</style></defs><path class="cls-2" d="m34.76,63.06c-2.82-1.18-5.37-3.28-6.55-5.64-.91.91-1.91,1.82-2.82,2.46-2.27,1.64-5.55,2.55-9.37,2.55-10.37,0-16.01-5.28-16.01-14.56,0-10.92,7.55-16.01,22.38-16.01.91,0,1.73,0,2.73.09v-1.91c0-5.19-1-6.91-5.46-6.91-3.91,0-8.46,1.91-13.47,5.28L1,19.65c2.46-1.55,4.28-2.46,7.55-3.82,4.55-1.91,8.46-2.73,12.74-2.73,7.82,0,13.19,2.91,15.01,8.1.64,1.91.91,3.37.82,8.37l-.27,15.65c-.09,5.1.27,7.28,4.37,10.37l-6.46,7.46Zm-10.37-22.75c-8.46,0-11.37,1.55-11.37,7.1,0,3.64,2.28,6.1,5.37,6.1,2.27,0,4.55-1.18,6.37-3.18l.18-10.01h-.55Z"/><path class="cls-2" d="m83.53,56.42c-3.18,3.37-7.37,5.28-12.47,5.28-3.64,0-7.1-.91-9.74-2.46.18,1.09.18,2.46.18,3.82v14.56l-11.74,3.09V26.84c0-6.1-.09-7.82-.73-11.74l10.83-1.91c.46,1.64.73,2.91.82,4.37,2.09-2.55,6.73-4.37,11.46-4.37,3.28,0,6.64,1.09,9.19,2.82,5,3.37,8.64,9.37,8.64,20.11,0,10.01-1.64,15.1-6.46,20.29Zm-8.01-29.39c-.91-2.55-2.82-3.91-5.82-3.91s-5.92,1.27-8.1,3.55v22.66c1.64,1.36,4.28,2.73,6.73,2.73,6.01,0,8.37-4.09,8.37-14.74,0-4.46-.36-8.01-1.18-10.28Z"/><path class="cls-2" d="m133.31,56.42c-3.18,3.37-7.37,5.28-12.47,5.28-3.64,0-7.1-.91-9.74-2.46.18,1.09.18,2.46.18,3.82v14.56l-11.74,3.09V26.84c0-6.1-.09-7.82-.73-11.74l10.83-1.91c.46,1.64.73,2.91.82,4.37,2.09-2.55,6.73-4.37,11.46-4.37,3.28,0,6.64,1.09,9.19,2.82,5,3.37,8.64,9.37,8.64,20.11,0,10.01-1.64,15.1-6.46,20.29Zm-8.01-29.39c-.91-2.55-2.82-3.91-5.82-3.91s-5.92,1.27-8.1,3.55v22.66c1.64,1.36,4.28,2.73,6.73,2.73,6.01,0,8.37-4.09,8.37-14.74,0-4.46-.36-8.01-1.18-10.28Z"/><path class="cls-3" d="m169.53,60.69h-10.1l-16.92-45.86,12.47-1.55,6.73,21.02c1,3.09,2.37,8.19,3,11.19.36-2.73,1.36-7.19,2.82-11.83l6.28-19.56h12.74l-17.02,46.59Z"/><path class="cls-3" d="m222.67,63.06c-2.82-1.18-5.37-3.28-6.55-5.64-.91.91-1.91,1.82-2.82,2.46-2.27,1.64-5.55,2.55-9.37,2.55-10.37,0-16.01-5.28-16.01-14.56,0-10.92,7.55-16.01,22.38-16.01.91,0,1.73,0,2.73.09v-1.91c0-5.19-1-6.91-5.46-6.91-3.91,0-8.46,1.91-13.47,5.28l-5.19-8.74c2.46-1.55,4.28-2.46,7.55-3.82,4.55-1.91,8.46-2.73,12.74-2.73,7.82,0,13.19,2.91,15.01,8.1.64,1.91.91,3.37.82,8.37l-.27,15.65c-.09,5.1.27,7.28,4.37,10.37l-6.46,7.46Zm-10.37-22.75c-8.46,0-11.37,1.55-11.37,7.1,0,3.64,2.28,6.1,5.37,6.1,2.27,0,4.55-1.18,6.37-3.18l.18-10.01h-.55Z"/><path class="cls-3" d="m262.44,60.69v-30.3c0-5.28-.91-6.82-4.09-6.82-2.46,0-5.64,1.64-8.46,4.18v32.94h-12.19V26.93c0-4-.55-7.82-1.64-10.92l10.83-3.09c1.09,1.91,1.73,3.91,1.73,5.82,1.82-1.27,3.37-2.37,5.37-3.46,2.46-1.27,5.64-2,8.37-2,5.19,0,9.74,2.73,11.19,6.73.64,1.73.91,3.73.91,6.64v34.03h-12.01Z"/><path class="cls-3" d="m300.57,61.78c-6.19,0-11.1-2.73-12.56-6.82-.73-2-.82-2.91-.82-7.19v-25.3h-4.64v-8.37h4.64c0-4.55,0-7.55.46-11.01l12.37-3.09c-.45,4.28-.73,9.37-.73,14.1h10.92l-3.09,8.37h-7.82v23.39c0,5.92,1.09,7.46,5.28,7.46,1.09,0,2.18-.27,4.37-.91l1.55,7.28c-3.55,1.46-6.73,2.09-9.92,2.09Z"/><path class="cls-3" d="m348.89,63.06c-2.82-1.18-5.37-3.28-6.55-5.64-.91.91-1.91,1.82-2.82,2.46-2.27,1.64-5.55,2.55-9.37,2.55-10.37,0-16.01-5.28-16.01-14.56,0-10.92,7.55-16.01,22.38-16.01.91,0,1.73,0,2.73.09v-1.91c0-5.19-1-6.91-5.46-6.91-3.91,0-8.46,1.91-13.47,5.28l-5.19-8.74c2.46-1.55,4.28-2.46,7.55-3.82,4.55-1.91,8.46-2.73,12.74-2.73,7.82,0,13.19,2.91,15.01,8.1.64,1.91.91,3.37.82,8.37l-.27,15.65c-.09,5.1.27,7.28,4.37,10.37l-6.46,7.46Zm-10.37-22.75c-8.46,0-11.37,1.55-11.37,7.1,0,3.64,2.28,6.1,5.37,6.1,2.27,0,4.55-1.18,6.37-3.18l.18-10.01h-.55Z"/><path class="cls-3" d="m401.48,22.66c-1.18,0-2.46-.18-3.18-.27,1.82,2.18,2.73,4.55,2.73,7.64,0,8.01-7.28,13.83-17.2,13.83-.55,0-.91,0-1.82-.09-3.09,1.46-4.82,2.55-4.82,3.82,0,.64.73,1.09,2,1.09l6.55.09c7.1.09,10.83,1.18,14.1,4.19,2.73,2.55,4,5.73,4,9.92,0,3.91-1.18,6.92-3.73,9.65-4.09,4.37-11.1,6.01-18.38,6.01-6.64,0-13.47-1.09-17.65-5-2.55-2.37-3.82-5.1-3.82-8.28,0-2.55.64-3.82,1.09-4.73h11.28c-.45,1.09-.55,1.73-.55,3,0,3.73,3.09,5.73,8.74,5.73,3.09,0,5.73-.36,7.64-1.55,1.82-1.09,3-2.82,3-4.73,0-4.18-3.73-5.46-8.55-5.55l-5.19-.09c-5.46-.09-9.01-.55-11.19-1.46-2.18-.82-3.55-2.91-3.55-6.1,0-3,.91-5.82,8.55-7.83-6.73-1.73-10.01-6-10.01-12.92,0-9.55,7.74-15.74,19.65-15.74,2.64,0,5,.36,8.37,1.18,2.55.64,4.19,1,5.73,1,3.37,0,6.83-1.46,9.65-4l5.1,7.73c-2.64,2.46-5.19,3.46-8.55,3.46Zm-20.38-.46c-4.64,0-7.28,2.55-7.28,6.91,0,4.73,2.91,6.64,7.19,6.64,4.82,0,7.46-2.37,7.46-6.64s-2.73-6.91-7.37-6.91Z"/><path class="cls-3" d="m423.78,41.22v.36c0,7.19,3.55,11.28,9.83,11.28,4.19,0,8.1-1.55,11.83-4.64l4.73,7.28c-5.37,4.37-11.01,6.46-17.56,6.46-13.38,0-22.02-9.46-22.02-24.11,0-8.37,1.73-13.92,5.82-18.47,3.82-4.28,8.46-6.28,14.65-6.28,5.37,0,10.46,1.82,13.47,4.92,4.28,4.37,6.19,10.64,6.19,20.38v2.82h-26.93Zm14.29-9.46c0-3.46-.36-5.28-1.46-7.01-1.18-1.82-2.91-2.73-5.37-2.73-4.64,0-7.28,3.64-7.28,10.1v.18h14.1v-.55Z"/><path class="cls-1" d="m466.19,61.78l-9.56-8.19,15.29-20.11-15.29-19.93,9.56-8.37,21.93,28.3-21.93,28.3Z"/></svg>